<svg xmlns="http://www.w3.org/2000/svg" width="11" height="11" viewBox="0 0 11 11" fill="none">
    <path d="M6.33019 10.896C6.46675 10.896 6.58469 10.8463 6.68401 10.747C6.78333 10.6477 6.83299 10.5298 6.83299 10.3932V7.004H10.1477C10.2843 7.004 10.4022 6.95434 10.5015 6.85503C10.6008 6.75571 10.6505 6.63777 10.6505 6.50121V5.27216C10.6505 5.1356 10.6008 5.01766 10.5015 4.91834C10.4022 4.81903 10.2843 4.76937 10.1477 4.76937H6.83299V1.39879C6.83299 1.26223 6.78333 1.14429 6.68401 1.04497C6.58469 0.945655 6.46675 0.895996 6.33019 0.895996H4.91492C4.77836 0.895996 4.66042 0.945655 4.56111 1.04497C4.46179 1.14429 4.41213 1.26223 4.41213 1.39879V4.76937H1.0788C0.942236 4.76937 0.824297 4.81903 0.72498 4.91834C0.625663 5.01766 0.576004 5.1356 0.576004 5.27216V6.50121C0.576004 6.63777 0.625663 6.75571 0.72498 6.85503C0.824297 6.95434 0.942236 7.004 1.0788 7.004H4.41213V10.3932C4.41213 10.5298 4.46179 10.6477 4.56111 10.747C4.66042 10.8463 4.77836 10.896 4.91492 10.896H6.33019Z" />
</svg>
